<?xml version="1.0" encoding="utf-8"?>
<svg version="1.1" id="checklist" xmlns="http://www.w3.org/2000/svg" xmlns:xlink="http://www.w3.org/1999/xlink" x="0px" y="0px"
	 width="20px" height="80px" viewBox="0 0 20 80" enable-background="new 0 0 20 80" xml:space="preserve">
<g id="checked-focus">
	<path fill="#F7F7F7" d="M5,78.2c-1.8,0-3.2-1.5-3.2-3.2V65c0-1.8,1.5-3.2,3.2-3.2h10c1.8,0,3.2,1.5,3.2,3.2v10
		c0,1.8-1.5,3.2-3.2,3.2H5z"/>
	<path fill="#ACB0B5" d="M15,62.5c1.4,0,2.5,1.1,2.5,2.5v10c0,1.4-1.1,2.5-2.5,2.5H5c-1.4,0-2.5-1.1-2.5-2.5V65
		c0-1.4,1.1-2.5,2.5-2.5H15 M15,61H5c-2.2,0-4,1.8-4,4v10c0,2.2,1.8,4,4,4h10c2.2,0,4-1.8,4-4V65C19,62.8,17.2,61,15,61L15,61z"/>
	<polygon fill="#656C77" points="15.9,67.1 14.2,65.5 8.4,71.3 5.8,68.6 4.1,70.2 8.4,74.5 8.4,74.5 8.4,74.5 	"/>
</g>
<g id="checked">
	<path fill="#FFFFFF" d="M5,58.2c-1.8,0-3.2-1.5-3.2-3.2V45c0-1.8,1.5-3.2,3.2-3.2h10c1.8,0,3.2,1.5,3.2,3.2v10
		c0,1.8-1.5,3.2-3.2,3.2H5z"/>
	<path fill="#ACB0B5" d="M15,42.5c1.4,0,2.5,1.1,2.5,2.5v10c0,1.4-1.1,2.5-2.5,2.5H5c-1.4,0-2.5-1.1-2.5-2.5V45
		c0-1.4,1.1-2.5,2.5-2.5H15 M15,41H5c-2.2,0-4,1.8-4,4v10c0,2.2,1.8,4,4,4h10c2.2,0,4-1.8,4-4V45C19,42.8,17.2,41,15,41L15,41z"/>
	<polygon fill="#656C77" points="15.9,47.1 14.2,45.5 8.4,51.3 5.8,48.6 4.1,50.2 8.4,54.5 8.4,54.5 8.4,54.5 	"/>
</g>
<g id="unchecked-active">
	<path fill="#F7F7F7" d="M5,38.2c-1.8,0-3.2-1.5-3.2-3.2V25c0-1.8,1.5-3.2,3.2-3.2h10c1.8,0,3.2,1.5,3.2,3.2v10
		c0,1.8-1.5,3.2-3.2,3.2H5z"/>
	<path fill="#ACB0B5" d="M15,22.5c1.4,0,2.5,1.1,2.5,2.5v10c0,1.4-1.1,2.5-2.5,2.5H5c-1.4,0-2.5-1.1-2.5-2.5V25
		c0-1.4,1.1-2.5,2.5-2.5H15 M15,21H5c-2.2,0-4,1.8-4,4v10c0,2.2,1.8,4,4,4h10c2.2,0,4-1.8,4-4V25C19,22.8,17.2,21,15,21L15,21z"/>
</g>
<g id="unchecked">
	<path fill="#FFFFFF" d="M5,18.2c-1.8,0-3.2-1.5-3.2-3.2V5c0-1.8,1.5-3.2,3.2-3.2h10c1.8,0,3.2,1.5,3.2,3.2v10
		c0,1.8-1.5,3.2-3.2,3.2H5z"/>
	<path fill="#ACB0B5" d="M15,2.5c1.4,0,2.5,1.1,2.5,2.5v10c0,1.4-1.1,2.5-2.5,2.5H5c-1.4,0-2.5-1.1-2.5-2.5V5c0-1.4,1.1-2.5,2.5-2.5
		H15 M15,1H5C2.8,1,1,2.8,1,5v10c0,2.2,1.8,4,4,4h10c2.2,0,4-1.8,4-4V5C19,2.8,17.2,1,15,1L15,1z"/>
</g>
</svg>
