<?xml version="1.0" encoding="UTF-8" standalone="no"?>
<svg width="16px" height="51px" viewBox="0 0 16 51" version="1.1" xmlns="http://www.w3.org/2000/svg"
     xmlns:xlink="http://www.w3.org/1999/xlink">
    <defs></defs>
    <g id="Page-1" stroke="none" stroke-width="1" fill="none" fill-rule="evenodd">
        <g id="-Test---Wired-ad-header-w/-scroll" transform="translate(-1.000000, -1.000000)" fill="#FFFFFF">
            <g id="Artboard" transform="translate(0.000000, 0.559085)">
                <g id="Path-318-+-Oval-1-Copy-3"
                   transform="translate(8.854588, 26.537004) rotate(6.000000) translate(-8.854588, -26.537004) translate(3.354588, 0.537004)">
                    <path d="M3.74895094,3.06445236 C3.74118629,3.12291743 3.74118629,3.12291743 3.70635758,3.3891371 C3.67215434,3.65162736 3.63254343,3.95881759 3.58797505,4.30831048 C3.46088832,5.30488946 3.31938383,6.44184376 3.1670628,7.70001007 C2.73208441,11.2929162 2.29717407,15.1399168 1.89113351,19.0881778 C1.46922807,23.190706 1.10274194,27.1716385 0.80778821,30.9465094 C0.3035629,37.3996756 0.02706767,43.0025982 0.02706767,47.5253322 C0.02706767,49.4583288 1.59407105,51.0253322 3.52706767,51.0253322 C5.4600643,51.0253322 7.02706767,49.4583288 7.02706767,47.5253322 C7.02706767,43.2137085 7.29526519,37.7789314 7.78651717,31.4918001 C8.07669879,27.7780035 8.43803134,23.8530516 8.85440808,19.8042834 C9.2558626,15.9006158 9.6861256,12.0947233 10.1163206,8.54132817 C10.2668102,7.29828903 10.4064871,6.17601939 10.5317426,5.19380046 C10.575494,4.85071408 10.6142894,4.54984825 10.6476778,4.2936112 C10.681342,4.036298 10.681342,4.036298 10.6879969,3.98621205 C10.9425338,2.07004741 9.5955184,0.310346126 7.67935377,0.0558092152 C5.76318913,-0.198727695 4.00348785,1.14828772 3.74895094,3.06445236 L3.74895094,3.06445236 L3.74895094,3.06445236 Z"
                          id="Shape"></path>
                </g>
            </g>
        </g>
    </g>
</svg>