<?xml version="1.0" encoding="utf-8"?>
<!DOCTYPE svg PUBLIC "-//W3C//DTD SVG 1.1//EN" "http://www.w3.org/Graphics/SVG/1.1/DTD/svg11.dtd">
<svg version="1.1" id="formatting" xmlns="http://www.w3.org/2000/svg"  x="0px" y="0px"
	 viewBox="0 0 28 980" enable-background="new 0 0 28 980" width="28px" height="980px" xml:space="preserve">
<g id="link-unfurl-animate">
	<path fill="#226B9A" d="M20,965h-1c-0.5,0-1,0.5-1,1s0.5,1,1,1h1c0.5,0,1-0.5,1-1S20.5,965,20,965z"/>
	<path fill="#226B9A" d="M10,966c0-0.5-0.5-1-1-1H8c-0.5,0-1,0.5-1,1s0.5,1,1,1h1C9.5,967,10,966.5,10,966z"/>
	<path fill="#226B9A" d="M18.3,963.2l0.7-0.7c0.4-0.4,0.4-1,0-1.4s-1-0.4-1.4,0l-0.7,0.7c-0.4,0.4-0.4,1,0,1.4
		C17.2,963.5,17.9,963.5,18.3,963.2z"/>
	<path fill="#226B9A" d="M10.5,961c-0.4-0.4-1-0.4-1.4,0s-0.4,1,0,1.4l0.7,0.7c0.4,0.4,1,0.4,1.4,0s0.4-1,0-1.4L10.5,961z"/>
	<path fill="#226B9A" d="M9.7,968.8L9,969.5c-0.4,0.4-0.4,1,0,1.4s1,0.4,1.4,0l0.7-0.7c0.4-0.4,0.4-1,0-1.4S10.1,968.5,9.7,968.8z"
		/>
	<path fill="#226B9A" d="M18.3,968.8c-0.4-0.4-1-0.4-1.4,0s-0.4,1,0,1.4l0.7,0.7c0.4,0.4,1,0.4,1.4,0s0.4-1,0-1.4L18.3,968.8z"/>
	<path fill="#A0D7EF" d="M14,959c-0.5,0-1,0.5-1,1v1c0,0.5,0.5,1,1,1s1-0.5,1-1v-1C15,959.5,14.5,959,14,959z"/>
	<path fill="#226B9A" d="M14,973L14,973c-0.6,0-1-0.5-1-1v-1c0-0.5,0.4-1,1-1l0,0c0.5,0,1,0.5,1,1v1C15,972.5,14.6,973,14,973z"/>
</g>
<g id="link-unfurl">
	<path fill="#226B9A" d="M20,937h-1c-0.5,0-1,0.5-1,1s0.5,1,1,1h1c0.5,0,1-0.5,1-1S20.5,937,20,937z"/>
	<path fill="#226B9A" d="M10,938c0-0.5-0.5-1-1-1H8c-0.5,0-1,0.5-1,1s0.5,1,1,1h1C9.5,939,10,938.5,10,938z"/>
	<path fill="#226B9A" d="M18.3,935.2l0.7-0.7c0.4-0.4,0.4-1,0-1.4s-1-0.4-1.4,0l-0.7,0.7c-0.4,0.4-0.4,1,0,1.4
		C17.2,935.5,17.9,935.5,18.3,935.2z"/>
	<path fill="#226B9A" d="M10.5,933c-0.4-0.4-1-0.4-1.4,0s-0.4,1,0,1.4l0.7,0.7c0.4,0.4,1,0.4,1.4,0s0.4-1,0-1.4L10.5,933z"/>
	<path fill="#226B9A" d="M9.7,940.8L9,941.5c-0.4,0.4-0.4,1,0,1.4s1,0.4,1.4,0l0.7-0.7c0.4-0.4,0.4-1,0-1.4S10.1,940.5,9.7,940.8z"
		/>
	<path fill="#226B9A" d="M18.3,940.8c-0.4-0.4-1-0.4-1.4,0s-0.4,1,0,1.4l0.7,0.7c0.4,0.4,1,0.4,1.4,0s0.4-1,0-1.4L18.3,940.8z"/>
	<path fill="#226B9A" d="M14,931c-0.5,0-1,0.5-1,1v1c0,0.5,0.5,1,1,1s1-0.5,1-1v-1C15,931.5,14.5,931,14,931z"/>
	<path fill="#226B9A" d="M14,945L14,945c-0.6,0-1-0.5-1-1v-1c0-0.5,0.4-1,1-1l0,0c0.5,0,1,0.5,1,1v1C15,944.5,14.6,945,14,945z"/>
</g>
<path id="link-unfurl-old" display="none" fill="#AAD8F2" d="M14,934.2c0.2,0,0.3-0.1,0.5-0.2c0.1-0.1,0.2-0.3,0.2-0.5v-1.8
	c0-0.2-0.1-0.4-0.2-0.5c-0.1-0.1-0.3-0.2-0.5-0.2s-0.3,0.1-0.5,0.2c-0.1,0.1-0.2,0.3-0.2,0.5v1.8c0,0.2,0.1,0.3,0.2,0.5
	C13.6,934.1,13.8,934.2,14,934.2z M16.5,934.8c0,0.2,0.1,0.3,0.2,0.5c0.1,0.1,0.3,0.2,0.5,0.2s0.3-0.1,0.5-0.2L19,934
	c0.1-0.1,0.2-0.3,0.2-0.5s-0.1-0.3-0.2-0.5c-0.1-0.1-0.3-0.2-0.5-0.2s-0.3,0.1-0.5,0.2l-1.3,1.4C16.6,934.5,16.5,934.7,16.5,934.8z
	 M10.8,935.5c0.2,0,0.3-0.1,0.5-0.2c0.1-0.1,0.2-0.3,0.2-0.5s-0.1-0.3-0.2-0.5L10,933c-0.1-0.1-0.3-0.2-0.5-0.2S9.2,932.9,9,933
	c-0.1,0.1-0.2,0.3-0.2,0.5s0.1,0.3,0.2,0.5l1.3,1.3C10.5,935.4,10.6,935.5,10.8,935.5z M18.5,938.7h1.8c0.2,0,0.4-0.1,0.5-0.2
	c0.1-0.1,0.2-0.3,0.2-0.5s-0.1-0.3-0.2-0.5c-0.1-0.1-0.3-0.2-0.5-0.2h-1.8c-0.2,0-0.3,0.1-0.5,0.2c-0.1,0.1-0.2,0.3-0.2,0.5
	s0.1,0.3,0.2,0.5C18.2,938.6,18.3,938.7,18.5,938.7z M10.2,938c0-0.2-0.1-0.3-0.2-0.5c-0.1-0.1-0.3-0.2-0.5-0.2H7.7
	c-0.2,0-0.3,0.1-0.5,0.2S7,937.8,7,938s0.1,0.3,0.2,0.5s0.3,0.2,0.5,0.2h1.8c0.2,0,0.3-0.1,0.5-0.2C10.1,938.4,10.2,938.2,10.2,938z
	 M17.2,940.5c-0.2,0-0.3,0.1-0.5,0.2c-0.1,0.1-0.2,0.3-0.2,0.5s0.1,0.3,0.2,0.5L18,943c0.1,0.1,0.3,0.2,0.5,0.2s0.3-0.1,0.5-0.2
	c0.1-0.1,0.2-0.3,0.2-0.5s-0.1-0.3-0.2-0.5l-1.3-1.3C17.5,940.6,17.3,940.5,17.2,940.5z M11.5,941.2c0-0.2-0.1-0.3-0.2-0.5
	c-0.1-0.1-0.3-0.2-0.5-0.2s-0.3,0.1-0.5,0.2L9,942c-0.1,0.1-0.2,0.3-0.2,0.5s0.1,0.3,0.2,0.5s0.3,0.2,0.5,0.2s0.3-0.1,0.5-0.2
	l1.3-1.4C11.4,941.5,11.5,941.4,11.5,941.2z M14,945c0.2,0,0.3-0.1,0.5-0.2s0.2-0.3,0.2-0.5v-1.8c0-0.2-0.1-0.3-0.2-0.5
	c-0.1-0.1-0.3-0.2-0.5-0.2s-0.3,0.1-0.5,0.2c-0.1,0.1-0.2,0.3-0.2,0.5v1.8c0,0.2,0.1,0.3,0.2,0.5S13.8,945,14,945z"/>
<path id="link-edit" fill="#FFFFFF" d="M18.2,909.2l-7.6,7.6H6.9V913l7.6-7.6L18.2,909.2z M11,914.8l-2.1-2.1L8,913.5v1h1.2v1.2h1
	L11,914.8z M14.7,906.9c-0.1,0-0.1,0-0.2,0.1l-4.9,4.9c0,0-0.1,0.1-0.1,0.2c0,0.1,0.1,0.2,0.2,0.2c0.1,0,0.1,0,0.2-0.1l4.9-4.9
	c0,0,0.1-0.1,0.1-0.2C15,907,14.9,906.9,14.7,906.9z M20.3,907.1l-1.5,1.5l-3.8-3.8l1.5-1.5c0.2-0.2,0.5-0.3,0.8-0.3
	s0.6,0.1,0.8,0.3l2.1,2.1c0.2,0.2,0.3,0.5,0.3,0.8S20.6,906.9,20.3,907.1z"/>
<polygon id="link-delete" fill="#226B9A" points="12.6,854 7.6,849.1 9.1,847.6 14,852.6 18.9,847.6 20.4,849.1 15.4,854 
	20.4,858.9 18.9,860.4 14,855.4 9.1,860.4 7.6,858.9 "/>
<path id="link-ok" fill="#FFFFFF" d="M13.3,888.3l-0.1,0.1c-0.3,0.4-1,0.5-1.4,0.2l-5.1-4c-0.4-0.3-0.5-1-0.2-1.4l0.9-1.2
	c0.3-0.4,1-0.5,1.4-0.2l3.1,2.4l6.7-8.6c0.3-0.4,1-0.5,1.4-0.2l1.2,0.9c0.4,0.3,0.5,1,0.2,1.4L13.3,888.3
	C13.3,888.2,13.3,888.2,13.3,888.3z"/>
<polygon id="unformat-active" fill="#35A5EE" points="19.2,819.8 14.1,824.9 9,819.8 7.9,820.9 13,826 7.9,831.1 9,832.2 
	14.1,827.1 19.2,832.2 20.3,831.1 15.2,826 20.3,820.9 "/>
<polygon id="unformat" fill="#232323" points="19.2,791.8 14.1,796.9 9,791.8 7.9,792.9 13,798 7.9,803.1 9,804.2 14.1,799.1 
	19.2,804.2 20.3,803.1 15.2,798 20.3,792.9 "/>
<path id="link-active" fill="#35A5EE" d="M18.5,769.8c0.2,0.8,0.5,2-0.1,3.5c-0.4,1.1-1.1,2-2.1,2.3l-2.4,0.8l-5.1,1.8
	c-0.3,0.1-0.7,0.2-1,0.2c-1.7,0-3.4-1.4-4-3.5c-0.4-1.2-0.4-2.4,0-3.5s1.2-2,2.2-2.3l2.5-0.9c0,0.6,0,1.1,0.1,1.7l0,0l-2.2,0.7
	c-0.7,0.3-1.1,1-1.2,1.3c-0.3,0.7-0.3,1.6,0,2.4c0.4,1.4,1.5,2.4,2.5,2.4c0.2,0,0.4,0,0.5-0.1l4.9-1.7l0.7-0.2
	c0.3-0.1,1.5-0.5,1.5-0.5c0.6-0.2,1.2-0.8,1.5-1.5s0.4-1.4,0.1-2.2c0-0.1,0-0.1-0.1-0.2c-0.4-1.4-1.5-2.4-2.5-2.4
	c-0.2,0-0.4,0-0.5,0.1l-2.1,0.7c-0.1-0.9,0.2-1.7,0.8-1.9l1.6-0.6l0,0c0.1,0,0.1,0,0.2,0C16.2,766.3,17.8,767.7,18.5,769.8
	L18.5,769.8z M22,770.7l-2.5,0.9c0-0.6-0.1-1.3-0.1-1.7l2.2-0.8c1.2-0.4,1.8-2.1,1.2-3.8c-0.4-1.4-1.5-2.4-2.5-2.4
	c-0.2,0-0.4,0-0.5,0.1l-7.4,2.6c-1.1,0.4-1.7,2-1.3,3.5c0,0.1,0,0.1,0.1,0.2c0.4,1.4,1.5,2.4,2.5,2.4c0.2,0,0.4,0,0.5-0.1l2-0.7
	c0.1,0.9-0.3,1.7-0.8,1.9l-1.4,0.5l0,0c-1.9,0.1-3.6-1.3-4.2-3.5l0,0v-0.1c-0.2-0.8-0.3-1.7-0.1-2.5c0.3-1.6,1.2-2.8,2.4-3.2
	l7.4-2.6c0.3-0.1,0.7-0.2,1-0.2c1.7,0,3.4,1.4,4,3.5C25,767.4,24,770,22,770.7z"/>
<path id="link" fill="#232323" d="M18.5,741.8c0.2,0.8,0.5,2-0.1,3.5c-0.4,1.1-1.1,2-2.1,2.3l-2.4,0.8l-5.1,1.8
	c-0.3,0.1-0.7,0.2-1,0.2c-1.7,0-3.4-1.4-4-3.5c-0.4-1.2-0.4-2.4,0-3.5s1.2-2,2.2-2.3l2.5-0.9c0,0.6,0,1.1,0.1,1.7l0,0l-2.2,0.7
	c-0.7,0.3-1.1,1-1.2,1.3c-0.3,0.7-0.3,1.6,0,2.4c0.4,1.4,1.5,2.4,2.5,2.4c0.2,0,0.4,0,0.5-0.1l4.9-1.7l0.7-0.2
	c0.3-0.1,1.5-0.5,1.5-0.5c0.6-0.2,1.2-0.8,1.5-1.5s0.4-1.4,0.1-2.2c0-0.1,0-0.1-0.1-0.2c-0.4-1.4-1.5-2.4-2.5-2.4
	c-0.2,0-0.4,0-0.5,0.1l-2.1,0.7c-0.1-0.9,0.2-1.7,0.8-1.9l1.6-0.6l0,0c0.1,0,0.1,0,0.2,0C16.2,738.3,17.8,739.7,18.5,741.8
	L18.5,741.8z M22,742.7l-2.5,0.9c0-0.6-0.1-1.3-0.1-1.7l2.2-0.8c1.2-0.4,1.8-2.1,1.2-3.8c-0.4-1.4-1.5-2.4-2.5-2.4
	c-0.2,0-0.4,0-0.5,0.1l-7.4,2.6c-1.1,0.4-1.7,2-1.3,3.5c0,0.1,0,0.1,0.1,0.2c0.4,1.4,1.5,2.4,2.5,2.4c0.2,0,0.4,0,0.5-0.1l2-0.7
	c0.1,0.9-0.3,1.7-0.8,1.9l-1.4,0.5l0,0c-1.9,0.1-3.6-1.3-4.2-3.5l0,0v-0.1c-0.2-0.8-0.3-1.7-0.1-2.5c0.3-1.6,1.2-2.8,2.4-3.2
	l7.4-2.6c0.3-0.1,0.7-0.2,1-0.2c1.7,0,3.4,1.4,4,3.5C25,739.4,24,742,22,742.7z"/>
<g id="strikethrough-active">
	<path fill="#35A5EE" d="M8.9,716.3h1c1.4,2.8,2.8,4,4.9,4c1.7,0,2.9-0.9,2.9-2.6c0-1.9-1.6-2.4-3.9-3s-4.6-1.4-4.6-4.2
		c0-2.3,1.7-4.1,4.4-4.1c1.4,0,2.8,0.6,3.6,1.6l0.4-1.5h1.1v4.7h-1c-1.1-2.8-2.6-3.8-4.3-3.8c-1.4,0-2.6,0.9-2.6,2.5
		c0,2,1.7,2.5,3.8,3c2.5,0.6,4.7,1.3,4.7,4.1c0,2.5-1.9,4.4-4.6,4.4c-1.8,0-3.2-0.7-4.3-1.8l-0.5,1.7h-1
		C8.9,721.3,8.9,716.3,8.9,716.3z"/>
	<rect x="5" y="713.5" fill="#35A5EE" width="18" height="1"/>
</g>
<g id="strikethrough">
	<path fill="#232323" d="M8.9,688.3h1c1.4,2.8,2.8,4,4.9,4c1.7,0,2.9-0.9,2.9-2.6c0-1.9-1.6-2.4-3.9-3s-4.6-1.4-4.6-4.2
		c0-2.3,1.7-4.1,4.4-4.1c1.4,0,2.8,0.6,3.6,1.6l0.4-1.5h1.1v4.7h-1c-1.1-2.8-2.6-3.8-4.3-3.8c-1.4,0-2.6,0.9-2.6,2.5
		c0,2,1.7,2.5,3.8,3c2.5,0.6,4.7,1.3,4.7,4.1c0,2.5-1.9,4.4-4.6,4.4c-1.8,0-3.2-0.6-4.3-1.8l-0.5,1.7h-1
		C8.9,693.3,8.9,688.3,8.9,688.3z"/>
	<rect x="5" y="685.5" fill="#232323" width="18" height="1"/>
</g>
<g id="underline">
	<rect x="7" y="638" fill="#232323" width="14" height="1"/>
	<path fill="#232323" d="M9,632.4v-7.7H7v-1.2h5.9v1.2h-2v7c0,2.5,1.2,3.5,3.7,3.5c1.1,0,1.8-0.4,2.3-0.9c0.7-0.7,0.8-1.5,0.8-3
		v-6.6h-2.1v-1.2H21v1.2h-1.9v7.7c0,2.2-1.8,4.2-5.2,4.2C10.7,636.7,9,634.9,9,632.4z"/>
</g>
<g id="underline-active">
	<rect x="7" y="666" fill="#35A5EE" width="14" height="1"/>
	<path fill="#35A5EE" d="M9,660.4v-7.7H7v-1.2h5.9v1.2h-2v7c0,2.5,1.2,3.5,3.7,3.5c1.1,0,1.8-0.4,2.3-0.9c0.7-0.7,0.8-1.5,0.8-3
		v-6.6h-2.1v-1.2H21v1.2h-1.9v7.7c0,2.2-1.8,4.2-5.2,4.2C10.7,664.7,9,662.9,9,660.4z"/>
</g>
<path id="italic-active" fill="#35A5EE" d="M13.5,607.1c0,0.4,0.1,0.6,0.5,0.6c0.5,0,1-0.7,1.6-2.3l1,0.3c-0.8,2.6-2,3.6-3.2,3.6
	c-1,0-1.8-0.7-1.8-2c0-2.3,1.8-5,1.8-6.5c0-0.4-0.1-0.5-0.3-0.5c-0.7,0-1.3,1-1.9,2.4l-1-0.4c0.8-2.1,2-3.3,3.3-3.3
	c1.1,0,1.9,0.8,1.9,2.3C15.2,602.8,13.5,605.7,13.5,607.1z M14.7,597.2c-0.6,0-1.1-0.4-1.1-1.2s0.6-1.8,1.6-1.8
	c0.7,0,1.2,0.5,1.2,1.2C16.4,596.1,15.7,597.2,14.7,597.2z"/>
<path id="italic" fill="#232323" d="M13.5,579c0,0.4,0.1,0.6,0.5,0.6c0.5,0,1-0.7,1.6-2.3l1,0.3c-0.9,2.7-2,3.6-3.2,3.6
	c-1,0-1.8-0.7-1.8-2c0-2.3,1.8-5,1.8-6.6c0-0.4-0.1-0.5-0.3-0.5c-0.7,0-1.3,1-1.9,2.4l-1-0.4c0.9-2.1,2-3.3,3.3-3.3
	c1.1,0,1.9,0.8,1.9,2.3C15.2,574.8,13.5,577.7,13.5,579z M14.7,569.1c-0.6,0-1.1-0.4-1.1-1.2s0.6-1.8,1.6-1.8c0.7,0,1.2,0.5,1.2,1.2
	C16.4,568.1,15.7,569.1,14.7,569.1z"/>
<path id="bold-active" fill="#35A5EE" d="M7.6,551.8H10v-11.5H7.6v-1.5h6.6c4.3,0,5.4,1.7,5.4,3.5c0,1.2-0.8,2.8-3.7,3.3v0.1
	c3,0.2,4.4,1.7,4.4,3.4c0,2.1-1.3,4.1-6.1,4.1H7.6V551.8z M14.1,545c2.4,0,3.2-1,3.2-2.6c0-1.4-0.6-2.2-3.1-2.2h-1.8v4.8H14.1z
	 M14.1,551.8c2.8,0,3.8-0.8,3.8-2.9c0-1.5-1-2.6-3.9-2.6h-1.7v5.5H14.1z"/>
<path id="bold" fill="#232323" d="M7.6,523.8H10v-11.5H7.6v-1.5h6.6c4.3,0,5.4,1.7,5.4,3.5c0,1.2-0.8,2.8-3.7,3.3v0.1
	c3,0.2,4.4,1.7,4.4,3.4c0,2.1-1.3,4.1-6.1,4.1H7.6V523.8z M14.1,517c2.4,0,3.2-1,3.2-2.6c0-1.4-0.6-2.2-3.1-2.2h-1.8v4.8H14.1z
	 M14.1,523.8c2.8,0,3.8-0.8,3.8-2.9c0-1.5-1-2.6-3.9-2.6h-1.7v5.5H14.1z"/>
<path id="attachment-active" fill="#35A5EE" d="M8.5,501.5c-1.3,0-2.4-0.5-3.4-1.5c-1.1-1.1-1.6-2.3-1.5-3.6
	c0.1-2.4,2.1-4.3,2.3-4.5L18,479.6c0.8-0.8,1.7-1.1,2.8-1.1c1,0.1,2,0.5,2.8,1.3c1.7,1.7,1.7,3.9,0.2,5.4l-10.6,10.6
	c-0.2,0.2-1.1,1.1-2.3,1.1c-0.7,0-1.4-0.3-1.9-0.8c-0.7-0.7-0.8-1.4-0.8-1.9c0.1-1.2,1-2.1,1.2-2.3l6.4-6.4c0.3-0.3,0.8-0.3,1.1,0
	c0.3,0.3,0.3,0.8,0,1.1l-6.5,6.5c0,0,0,0-0.1,0c-0.2,0.2-0.7,0.7-0.7,1.2c0,0.3,0.1,0.5,0.3,0.7c0.3,0.3,0.5,0.4,0.8,0.4
	c0.6,0,1.2-0.6,1.2-0.6l0,0l10.6-10.6c0.9-0.9,0.9-2.2-0.2-3.2c-1.1-1.1-2.4-1.2-3.3-0.2L6.9,493l0,0c0,0-1.7,1.6-1.8,3.4
	c0,0.9,0.3,1.7,1.1,2.4s1.5,1.1,2.4,1.1c1.8,0,3.4-1.8,3.4-1.8l0,0l8.2-8.2c0.3-0.3,0.8-0.3,1.1,0s0.3,0.8,0,1.1l-8.2,8.2
	c-0.2,0.2-2.1,2.2-4.5,2.3C8.6,501.5,8.5,501.5,8.5,501.5z"/>
<path id="attachment" fill="#232323" d="M8.5,473.5c-1.3,0-2.4-0.5-3.4-1.5c-1.1-1.1-1.6-2.3-1.5-3.6c0.1-2.4,2.1-4.3,2.3-4.5
	L18,451.6c0.8-0.8,1.7-1.1,2.8-1.1c1,0.1,2,0.5,2.8,1.3c1.7,1.7,1.7,3.9,0.2,5.4l-10.6,10.6c-0.2,0.2-1.1,1.1-2.3,1.1
	c-0.7,0-1.4-0.3-1.9-0.8c-0.7-0.7-0.8-1.4-0.8-1.9c0.1-1.2,1-2.1,1.2-2.3l6.4-6.4c0.3-0.3,0.8-0.3,1.1,0c0.3,0.3,0.3,0.8,0,1.1
	l-6.5,6.5c0,0,0,0-0.1,0c-0.2,0.2-0.7,0.7-0.7,1.2c0,0.3,0.1,0.5,0.3,0.7c0.3,0.3,0.5,0.4,0.8,0.4c0.6,0,1.2-0.6,1.2-0.6l0,0
	l10.6-10.6c0.9-0.9,0.9-2.2-0.2-3.2c-1.1-1.1-2.4-1.2-3.3-0.2L6.9,465l0,0c0,0-1.7,1.6-1.8,3.4c0,0.9,0.3,1.7,1.1,2.4
	s1.5,1.1,2.4,1.1c1.8,0,3.4-1.8,3.4-1.8l0,0l8.2-8.2c0.3-0.3,0.8-0.3,1.1,0s0.3,0.8,0,1.1l-8.2,8.2c-0.2,0.2-2.1,2.2-4.5,2.3
	C8.6,473.5,8.5,473.5,8.5,473.5z"/>
<g id="checkbox-active">
	<path fill="#35A5EE" d="M21,439c0,1.1-0.9,2-2,2H9c-1.1,0-2-0.9-2-2v-10c0-1.1,0.9-2,2-2h8v-2H9c-2.2,0-4,1.8-4,4v10
		c0,2.2,1.8,4,4,4h10c2.2,0,4-1.8,4-4v-5h-2V439z"/>
	<polygon fill="#35A5EE" points="10.4,431 9,432.4 14.5,437.7 23.5,426.3 22,425 14.3,434.8 	"/>
</g>
<g id="checkbox">
	<path fill="#232323" d="M21,411c0,1.1-0.9,2-2,2H9c-1.1,0-2-0.9-2-2v-10c0-1.1,0.9-2,2-2h8v-2H9c-2.2,0-4,1.8-4,4v10
		c0,2.2,1.8,4,4,4h10c2.2,0,4-1.8,4-4v-5h-2V411z"/>
	<polygon fill="#232323" points="10.4,403 9,404.4 14.5,409.7 23.5,398.3 22,397 14.3,406.8 	"/>
</g>
<path id="snippet-active" fill="#35A5EE" d="M16,372l6,6.1l-6,6.1l1,1l6.9-7.1l-6.9-7L16,372z M11.9,372l-1-1L4,378l6.9,7.1l1-1
	l-6-6.1L11.9,372z"/>
<path id="snippet" fill="#232323" d="M16,344l6,6.1l-6,6.1l1,1l6.9-7.1l-6.9-7L16,344z M12,344l-1-1l-6.9,7l6.9,7.1l1-1L6,350
	L12,344z"/>
<g id="numbered-active">
	<path fill="#35A5EE" d="M4.8,320.3v-4.1H3.2v-1c0.2,0,0.4,0,0.6,0c0.2,0,0.4-0.1,0.6-0.2s0.3-0.2,0.4-0.4S5,314.2,5,314h1v6.3H4.8
		L4.8,320.3z"/>
	<path fill="#35A5EE" d="M3,325.1c0.1-0.3,0.2-0.6,0.4-0.8c0.2-0.2,0.4-0.4,0.7-0.5c0.3-0.1,0.6-0.2,1-0.2c0.3,0,0.6,0,0.8,0.1
		c0.3,0.1,0.5,0.2,0.7,0.4c0.2,0.2,0.3,0.4,0.5,0.6c0.1,0.2,0.2,0.5,0.2,0.8s0,0.6-0.2,0.8c-0.1,0.2-0.2,0.4-0.4,0.6
		c-0.2,0.2-0.3,0.3-0.6,0.5c-0.2,0.1-0.4,0.3-0.6,0.4s-0.4,0.3-0.6,0.5s-0.4,0.4-0.5,0.6h3v1.1H2.7c0-0.4,0-0.7,0.2-1
		c0.1-0.3,0.2-0.5,0.4-0.7s0.4-0.4,0.6-0.6s0.5-0.4,0.8-0.5c0.1-0.1,0.3-0.2,0.4-0.3c0.2-0.1,0.3-0.2,0.4-0.3s0.2-0.2,0.3-0.4
		c0.1-0.2,0.1-0.3,0.1-0.5c0-0.3-0.1-0.6-0.3-0.7c-0.2-0.2-0.4-0.3-0.7-0.3c-0.2,0-0.3,0-0.5,0.1s-0.2,0.2-0.3,0.4
		c-0.1,0.1-0.1,0.3-0.2,0.5c0,0.2-0.1,0.4-0.1,0.5H2.9C2.8,325.8,2.9,325.4,3,325.1z"/>
	<rect x="11" y="321" fill="#35A5EE" width="14" height="2"/>
	<rect x="11" y="315" fill="#35A5EE" width="14" height="2"/>
	<rect x="11" y="327" fill="#35A5EE" width="14" height="2"/>
</g>
<g id="numbered">
	<path fill="#232323" d="M4.8,292.3v-4.1H3.2v-1c0.2,0,0.4,0,0.6,0c0.2,0,0.4-0.1,0.6-0.2s0.3-0.2,0.4-0.4S5,286.2,5,286h1v6.3H4.8
		L4.8,292.3z"/>
	<path fill="#232323" d="M3,297.1c0.1-0.3,0.2-0.6,0.4-0.8c0.2-0.2,0.4-0.4,0.7-0.5c0.3-0.1,0.6-0.2,1-0.2c0.3,0,0.6,0,0.8,0.1
		c0.3,0.1,0.5,0.2,0.7,0.4c0.2,0.2,0.3,0.4,0.5,0.6c0.1,0.2,0.2,0.5,0.2,0.8s0,0.6-0.2,0.8c-0.1,0.2-0.2,0.4-0.4,0.6
		c-0.2,0.2-0.3,0.3-0.6,0.5c-0.2,0.1-0.4,0.3-0.6,0.4s-0.4,0.3-0.6,0.5s-0.4,0.3-0.5,0.5h3v1.1H2.7c0-0.4,0-0.7,0.2-1
		c0.1-0.3,0.2-0.5,0.4-0.7s0.4-0.4,0.6-0.6s0.5-0.4,0.8-0.5c0.1-0.1,0.3-0.2,0.4-0.3c0.2-0.1,0.3-0.2,0.4-0.3s0.2-0.2,0.3-0.4
		c0.1-0.2,0.1-0.3,0.1-0.5c0-0.3-0.1-0.6-0.3-0.7c-0.2-0.2-0.4-0.3-0.7-0.3c-0.2,0-0.3,0-0.5,0.1s-0.2,0.2-0.3,0.4
		c-0.1,0.1-0.1,0.3-0.2,0.5c0,0.2-0.1,0.4-0.1,0.5H2.9C2.8,297.7,2.9,297.4,3,297.1z"/>
	<rect x="11" y="293" fill="#232323" width="14" height="2"/>
	<rect x="11" y="287" fill="#232323" width="14" height="2"/>
	<rect x="11" y="299" fill="#232323" width="14" height="2"/>
</g>
<g id="bullet-active">
	<rect x="11" y="259" fill="#35A5EE" width="14" height="2"/>
	<rect x="11" y="265" fill="#35A5EE" width="14" height="2"/>
	<rect x="11" y="271" fill="#35A5EE" width="14" height="2"/>
	<circle fill="#35A5EE" cx="5" cy="260" r="2"/>
	<circle fill="#35A5EE" cx="5" cy="266" r="2"/>
	<circle fill="#35A5EE" cx="5" cy="272" r="2"/>
</g>
<g id="bullet">
	<rect x="11" y="231" fill="#232323" width="14" height="2"/>
	<rect x="11" y="237" fill="#232323" width="14" height="2"/>
	<rect x="11" y="243" fill="#232323" width="14" height="2"/>
	<circle fill="#232323" cx="5" cy="232" r="2"/>
	<circle fill="#232323" cx="5" cy="238" r="2"/>
	<circle fill="#232323" cx="5" cy="244" r="2"/>
</g>
<g id="H3-active">
	<path fill="#35A5EE" d="M18.5,214.8c0-0.6,0.5-1.2,1.2-1.2c0.6,0,1,0.5,1,1c0,0.4-0.2,0.7-0.5,0.9c0.4,0.4,1,0.6,1.8,0.6
		c1.5,0,2.1-0.8,2.1-2s-0.6-2.1-2.8-2.1h-0.4v-0.9h0.4c2.1,0,2.7-0.9,2.7-2.1c0-1.1-0.7-1.7-1.8-1.7c-0.9,0-1.5,0.3-1.9,0.6
		c0.4,0.2,0.6,0.5,0.6,1s-0.3,1-1,1c-0.6,0-1.1-0.5-1.1-1.2c0-1.2,1.4-2.4,3.5-2.4c2.2,0,3.4,1.2,3.4,2.6c0,1.1-0.9,2.2-2.9,2.6l0,0
		c2,0.1,3.2,1.2,3.2,2.5c0,1.6-1.5,3-3.9,3C20,217.1,18.5,216.1,18.5,214.8z"/>
	<path fill="#35A5EE" d="M2.6,215.5h2.2v-10.6H2.6v-1.3h6.2v1.3H7v4.5h6v-4.5h-1.9v-1.3h6.2v1.3H15v10.6h2.3v1.3h-6.2v-1.3H13v-4.9
		H6.9v4.9h1.9v1.3H2.6V215.5z"/>
</g>
<g id="H3">
	<path fill="#232323" d="M18.5,186.8c0-0.6,0.5-1.2,1.2-1.2c0.6,0,1,0.5,1,1c0,0.4-0.2,0.7-0.5,0.9c0.4,0.4,1,0.6,1.8,0.6
		c1.5,0,2.1-0.8,2.1-2s-0.6-2.1-2.8-2.1h-0.4v-0.9h0.4c2.1,0,2.7-0.9,2.7-2.1c0-1.1-0.7-1.7-1.8-1.7c-0.9,0-1.5,0.3-1.9,0.6
		c0.4,0.2,0.6,0.5,0.6,1s-0.3,1-1,1c-0.6,0-1.1-0.5-1.1-1.2c0-1.2,1.4-2.4,3.5-2.4c2.2,0,3.4,1.2,3.4,2.6c0,1.1-0.9,2.2-2.9,2.6l0,0
		c2,0.1,3.2,1.2,3.2,2.5c0,1.6-1.5,3-3.9,3C20,189.1,18.5,188.1,18.5,186.8z"/>
	<path fill="#232323" d="M2.6,187.5h2.2v-10.6H2.6v-1.3h6.2v1.3H7v4.5h6v-4.5h-1.9v-1.3h6.2v1.3H15v10.6h2.3v1.3h-6.2v-1.3H13v-4.9
		H6.9v4.9h1.9v1.3H2.6V187.5z"/>
</g>
<g id="H2-active">
	<path fill="#35A5EE" d="M21.5,156.5c2-1.2,2.6-1.7,2.6-3.2c0-1.2-0.7-1.9-2-1.9c-0.9,0-1.6,0.4-1.9,1c0.5,0.2,0.8,0.6,0.8,1.1
		c0,0.6-0.4,1.1-1.1,1.1s-1.2-0.6-1.2-1.3c0-1.5,1.5-2.9,3.6-2.9c2.3,0,3.5,1.5,3.5,3c0,1.6-1.1,2.5-3.2,3.5
		c-1.8,0.9-2.3,1.4-2.7,2.1v0.1c0.4-0.2,1-0.4,1.4-0.4c1.1,0,2.1,0.8,2.7,0.8c0.7,0,0.9-0.5,1.3-1.9l0.8,0.1
		c-0.3,2.4-1.1,3.3-2.4,3.3c-1.5,0-2.2-1.4-3.3-1.4c-0.1,0-0.3,0-0.3,0c0.1,0.1,0.1,0.3,0.1,0.5c0,0.5-0.4,0.9-0.9,0.9
		c-0.6,0-1-0.5-1-1.2C18.5,158.9,19.5,157.7,21.5,156.5z"/>
	<path fill="#35A5EE" d="M2.6,159.5h2.2v-10.6H2.6v-1.3h6.2v1.3H7v4.5h6v-4.5h-1.9v-1.3h6.2v1.3H15v10.6h2.3v1.3h-6.2v-1.3H13v-4.9
		H6.9v4.9h1.9v1.3H2.6V159.5z"/>
</g>
<g id="H2">
	<path fill="#232323" d="M21.5,128.5c2-1.2,2.6-1.7,2.6-3.2c0-1.2-0.7-1.9-2-1.9c-0.9,0-1.6,0.4-1.9,1c0.5,0.2,0.8,0.6,0.8,1.1
		c0,0.6-0.4,1.1-1.1,1.1s-1.2-0.6-1.2-1.3c0-1.5,1.5-2.9,3.6-2.9c2.3,0,3.5,1.5,3.5,3c0,1.6-1.1,2.5-3.2,3.5
		c-1.8,0.9-2.3,1.4-2.7,2.1v0.1c0.4-0.2,1-0.4,1.4-0.4c1.1,0,2.1,0.8,2.7,0.8c0.7,0,0.9-0.5,1.3-1.9l0.8,0.1
		c-0.3,2.4-1.1,3.4-2.4,3.4c-1.5,0-2.2-1.4-3.3-1.4c-0.1,0-0.3,0-0.3,0c0.1,0.1,0.1,0.3,0.1,0.5c0,0.5-0.4,0.9-0.9,0.9
		c-0.6,0-1-0.5-1-1.2C18.5,130.9,19.5,129.7,21.5,128.5z"/>
	<path fill="#232323" d="M2.6,131.5h2.2v-10.6H2.6v-1.3h6.2v1.3H7v4.5h6v-4.5h-1.9v-1.3h6.2v1.3H15v10.6h2.3v1.3h-6.2v-1.3H13v-4.9
		H6.9v4.9h1.9v1.3H2.6V131.5z"/>
</g>
<g id="H1-active">
	<path fill="#35A5EE" d="M19.5,103.8h2.3v-7.2c-0.3,0.1-0.8,0.2-1.3,0.2c-0.4,0-0.9-0.1-1.1-0.2v-0.9c1.1,0.1,2.4-0.4,2.8-1.3h1.1
		v9.2h2.3v1.1h-6.2L19.5,103.8C19.6,103.8,19.5,103.8,19.5,103.8z"/>
	<path fill="#35A5EE" d="M2.6,103.5h2.2V92.9H2.6v-1.3h6.2v1.3H7v4.5h6v-4.5h-1.9v-1.3h6.2v1.3H15v10.6h2.3v1.3h-6.2v-1.3H13v-4.9
		H6.9v4.9h1.9v1.3H2.6V103.5z"/>
</g>
<g id="H1">
	<path fill="#232323" d="M19.5,75.8h2.3v-7.2c-0.3,0.1-0.8,0.2-1.3,0.2c-0.4,0-0.9-0.1-1.1-0.2v-0.9c1.1,0.1,2.4-0.4,2.8-1.3h1.1
		v9.2h2.3v1.1h-6.2L19.5,75.8C19.6,75.8,19.5,75.8,19.5,75.8z"/>
	<path fill="#232323" d="M2.6,75.5h2.2V64.9H2.6v-1.3h6.2v1.3H7v4.5h6v-4.5h-1.9v-1.3h6.2v1.3H15v10.6h2.3v1.3h-6.2v-1.3H13v-4.9
		H6.9v4.9h1.9v1.3H2.6V75.5z"/>
</g>
<path id="pilcrow-active" fill="#35A5EE" d="M11,33c-2.2,0.2-4,2.1-4,4.5s1.8,4.3,4,4.5V33z M13,35h3v16h2V35h3v-2H11v18h2V35z"/>
<path id="pilcrow" fill="#232323" d="M11,5C8.8,5.2,7,7.1,7,9.5s1.8,4.3,4,4.5V5z M13,7h3v16h2V7h3V5H11v18h2V7z"/>
</svg>
