<?xml version="1.0" encoding="utf-8"?>
<svg version="1.1" id="formatting" xmlns="http://www.w3.org/2000/svg" xmlns:xlink="http://www.w3.org/1999/xlink" x="0px" y="0px"
	 width="36px" height="144px" viewBox="0 0 36 144" enable-background="new 0 0 36 144" xml:space="preserve">
<g id="paragraph-active">
	<polygon fill="#35A5EE" points="27.3,128 31.1,124.2 32,125.2 27.3,129.9 22.6,125.2 23.5,124.2 	"/>
	<path fill="#35A5EE" d="M9,117c-2.2,0.2-4,2.1-4,4.5s1.8,4.3,4,4.5V117z M11,119h3v16h2v-16h3v-2H9v18h2V119z"/>
</g>
<g id="paragraph">
	<polygon fill="#BCBEC1" points="27.3,92 31.1,88.2 32,89.2 27.3,93.9 22.6,89.2 23.5,88.2 	"/>
	<path fill="#BCBEC1" d="M9,81c-2.2,0.2-4,2.1-4,4.5s1.8,4.3,4,4.5V81z M11,83h3v16h2V83h3v-2H9v18h2V83z"/>
</g>
<g id="plus-active">
	<path fill="#35A5EE" d="M18,42c-6.6,0-12,5.4-12,12s5.4,12,12,12s12-5.4,12-12S24.6,42,18,42z M18,64.5c-5.8,0-10.5-4.7-10.5-10.5
		S12.2,43.5,18,43.5S28.5,48.2,28.5,54S23.8,64.5,18,64.5z"/>
	<path fill="#35A5EE" d="M17,53v-5c0-0.6,0.4-1,1-1s1,0.5,1,1v5h5c0.6,0,1,0.4,1,1s-0.5,1-1,1h-5v5c0,0.6-0.4,1-1,1s-1-0.5-1-1v-5
		h-5c-0.6,0-1-0.4-1-1s0.5-1,1-1H17z"/>
</g>
<g id="plus">
	<path fill="#BCBEC1" d="M18,6C11.4,6,6,11.4,6,18s5.4,12,12,12s12-5.4,12-12S24.6,6,18,6z M18,28.5c-5.8,0-10.5-4.7-10.5-10.5
		S12.2,7.5,18,7.5S28.5,12.2,28.5,18S23.8,28.5,18,28.5z"/>
	<path fill="#BCBEC1" d="M17,17v-5c0-0.6,0.4-1,1-1s1,0.5,1,1v5h5c0.6,0,1,0.4,1,1s-0.5,1-1,1h-5v5c0,0.6-0.4,1-1,1s-1-0.5-1-1v-5
		h-5c-0.6,0-1-0.4-1-1s0.5-1,1-1H17z"/>
</g>
</svg>
